<svg width="324" height="304" viewBox="0 0 324 304" fill="none" xmlns="http://www.w3.org/2000/svg">
<path d="M84.5615 75.1374L84.5618 134.174C84.5618 134.366 84.5618 135.209 84.5618 137.049C84.7535 137.752 85.9033 139.924 88.2034 138.391L124.239 117.69M84.5615 75.1374L88.2034 77.4375M84.5615 75.1374L215.094 3.83347C216.052 3.70569 218.084 4.10182 218.544 6.70863V63.8284L196.884 76.0958" stroke="black" stroke-width="0.383354"/>
<path d="M215.094 60.5698L107.371 123.632L88.2036 134.366V77.6291L215.094 8.05029V60.5698Z" stroke="black" stroke-width="0.383354"/>
<path d="M67.5559 270.025C114.657 292.471 191.019 292.478 238.119 270.025C285.22 247.571 285.213 211.181 238.119 188.735C191.025 166.288 114.657 166.288 67.5559 188.735C20.4552 211.181 20.462 247.578 67.5559 270.025Z" fill="#F5F5F5"/>
<path d="M237.958 253.435C246.632 253.435 253.665 250.084 253.665 245.951C253.665 241.817 246.632 238.466 237.958 238.466C229.283 238.466 222.25 241.817 222.25 245.951C222.25 250.084 229.283 253.435 237.958 253.435Z" fill="#EBEBEB"/>
<path d="M130.883 248.707L195.133 211.606C195.275 211.556 195.397 211.464 195.484 211.341C195.571 211.219 195.617 211.073 195.617 210.923C195.617 210.773 195.571 210.626 195.484 210.504C195.397 210.381 195.275 210.289 195.133 210.239L189.193 206.822C188.826 206.636 188.419 206.54 188.008 206.54C187.596 206.54 187.19 206.636 186.822 206.822L122.551 243.888C122.41 243.938 122.287 244.031 122.2 244.153C122.113 244.276 122.067 244.422 122.067 244.572C122.067 244.722 122.113 244.868 122.2 244.991C122.287 245.113 122.41 245.206 122.551 245.255L128.511 248.673C128.877 248.863 129.281 248.966 129.693 248.972C130.105 248.978 130.513 248.887 130.883 248.707Z" fill="#E0E0E0"/>
<path d="M193.37 68.3623L135.435 101.813C134.574 102.375 133.857 103.132 133.343 104.023C132.829 104.914 132.532 105.913 132.476 106.94V244.373C132.476 246.26 133.802 247.025 135.435 246.082L193.37 212.631C194.232 212.07 194.95 211.314 195.464 210.423C195.978 209.532 196.275 208.532 196.329 207.505V70.0711C196.329 68.1846 195.01 67.4191 193.37 68.3623Z" fill="#455A64"/>
<path d="M135.436 101.813L193.371 68.3616C194.833 67.514 196.043 68.0403 196.289 69.5099C196.153 68.5859 195.822 67.7014 195.319 66.9144C194.816 66.1275 194.152 65.4559 193.371 64.944L190.965 63.577C190.048 63.1117 189.034 62.8691 188.005 62.8691C186.977 62.8691 185.963 63.1117 185.046 63.577L127.104 97.0007C126.232 97.5479 125.512 98.3075 125.013 99.2084L133.345 103.993C133.844 103.099 134.564 102.348 135.436 101.813Z" fill="#37474F"/>
<path d="M124.13 239.561C124.186 240.588 124.483 241.587 124.997 242.478C125.512 243.369 126.228 244.126 127.089 244.688L129.502 246.055C130.337 246.472 131.251 246.709 132.184 246.749C133.117 246.789 134.048 246.632 134.916 246.287C133.549 246.82 132.462 246.034 132.462 244.346V106.94C132.496 105.908 132.795 104.903 133.33 104.021L124.998 99.2363C124.471 100.112 124.172 101.106 124.13 102.128V239.561Z" fill="#263238"/>
<path d="M137.029 120.125L191.798 88.5126C192.783 87.9521 193.576 88.4101 193.576 89.5379V191.258C193.543 191.875 193.365 192.474 193.056 193.009C192.747 193.544 192.316 193.998 191.798 194.334L137.049 225.946C136.065 226.514 135.272 226.056 135.272 224.921V123.201C135.303 122.586 135.478 121.988 135.783 121.453C136.089 120.919 136.515 120.464 137.029 120.125Z" fill="white"/>
<path d="M164.403 90.2965C164.1 90.495 163.849 90.7616 163.668 91.075C163.488 91.3885 163.384 91.7398 163.364 92.101C163.364 92.7845 163.829 93.0374 164.403 92.7024C164.706 92.5052 164.959 92.2388 165.139 91.9251C165.32 91.6115 165.423 91.2595 165.442 90.898C165.442 90.235 164.977 89.9684 164.403 90.2965Z" fill="#37474F"/>
<path d="M164.403 215.003C163.208 215.784 162.214 216.837 161.502 218.074C160.789 219.311 160.378 220.699 160.302 222.125C160.302 224.743 162.141 225.809 164.403 224.497C165.598 223.715 166.591 222.662 167.304 221.425C168.016 220.188 168.428 218.8 168.504 217.374C168.518 214.757 166.673 213.69 164.403 215.003Z" fill="#37474F"/>
<path d="M154.568 100.877C153.967 101.276 153.468 101.81 153.112 102.437C152.756 103.064 152.552 103.766 152.517 104.486C152.517 105.812 153.447 106.352 154.568 105.689C155.175 105.294 155.68 104.761 156.042 104.134C156.404 103.507 156.613 102.803 156.652 102.08C156.652 100.754 155.723 100.214 154.568 100.877Z" fill="#37474F"/>
<path d="M159.673 100.426C159.673 101.315 160.356 101.649 161.156 101.178L174.826 93.2696C175.25 93.0051 175.605 92.6445 175.863 92.2169C176.12 91.7893 176.273 91.3069 176.31 90.809C176.31 89.9272 175.626 89.5923 174.826 90.0639L161.156 97.9722C160.734 98.236 160.379 98.5956 160.121 99.0219C159.864 99.4482 159.71 99.9292 159.673 100.426Z" fill="#37474F"/>
<path d="M128.751 124.527C129.236 124.843 129.64 125.268 129.929 125.77C130.219 126.271 130.387 126.833 130.419 127.411C130.419 128.477 129.674 128.908 128.751 128.375C128.267 128.058 127.865 127.632 127.577 127.131C127.288 126.63 127.121 126.068 127.09 125.49C127.09 124.431 127.835 124 128.751 124.527Z" fill="#37474F"/>
<path d="M128.751 137.362C129.236 137.678 129.64 138.104 129.929 138.605C130.219 139.107 130.387 139.669 130.419 140.247C130.419 141.306 129.674 141.737 128.751 141.211C128.267 140.894 127.865 140.467 127.577 139.966C127.288 139.465 127.121 138.903 127.09 138.326C127.09 137.26 127.835 136.829 128.751 137.362Z" fill="#37474F"/>
<path d="M128.231 124.786C128.716 125.102 129.12 125.528 129.41 126.029C129.7 126.53 129.867 127.093 129.899 127.671C129.899 128.73 129.154 129.161 128.231 128.634C127.746 128.318 127.342 127.893 127.053 127.391C126.763 126.89 126.595 126.328 126.563 125.75C126.57 124.684 127.315 124.273 128.231 124.786Z" fill="#455A64"/>
<path d="M128.231 137.616C128.717 137.932 129.122 138.359 129.411 138.861C129.701 139.364 129.868 139.928 129.899 140.507C129.899 141.566 129.154 141.997 128.231 141.464C127.745 141.149 127.34 140.723 127.05 140.222C126.761 139.721 126.594 139.158 126.563 138.579C126.57 137.52 127.315 137.089 128.231 137.616Z" fill="#455A64"/>
<path d="M204.662 92.7574C204.662 91.6228 203.869 91.1648 202.885 91.7322L196.33 95.512L148.136 123.345C147.618 123.681 147.187 124.135 146.878 124.669C146.569 125.204 146.391 125.804 146.358 126.42V228.113C146.358 229.248 147.151 229.706 148.136 229.138L196.35 201.299L202.885 197.526C203.402 197.19 203.833 196.736 204.142 196.201C204.451 195.667 204.629 195.067 204.662 194.45V92.7574Z" fill="white"/>
<path d="M205.346 92.7566C205.389 92.4138 205.33 92.066 205.176 91.7566C205.022 91.4472 204.781 91.1899 204.482 91.0171C204.183 90.8442 203.839 90.7633 203.494 90.7846C203.15 90.8059 202.819 90.9283 202.543 91.1367L196.289 94.7525L147.794 122.776C147.17 123.171 146.65 123.711 146.281 124.35C145.912 124.989 145.704 125.709 145.675 126.447V228.112C145.648 228.454 145.713 228.796 145.865 229.103C146.017 229.41 146.249 229.67 146.536 229.855C146.781 229.998 147.06 230.071 147.343 230.067C147.743 230.055 148.134 229.939 148.477 229.732L197.007 201.708L203.247 198.106C203.868 197.708 204.384 197.167 204.753 196.529C205.122 195.89 205.332 195.172 205.366 194.436L205.346 92.7566ZM196.303 200.54L195.742 200.868L147.821 228.536C147.741 228.598 147.647 228.641 147.548 228.662C147.449 228.684 147.346 228.683 147.247 228.659C147.158 228.605 147.069 228.413 147.069 228.099V126.42C147.105 125.923 147.252 125.441 147.501 125.011C147.75 124.58 148.093 124.211 148.505 123.932L196.378 96.2494L203.213 92.2918C203.294 92.23 203.387 92.1868 203.486 92.1655C203.586 92.1442 203.688 92.1454 203.787 92.1688C203.876 92.2235 203.965 92.4149 203.965 92.7293V194.449C203.929 194.946 203.782 195.428 203.533 195.859C203.285 196.289 202.941 196.658 202.53 196.937L196.289 200.54H196.303Z" fill="#4D81E7"/>
<path d="M175.509 116.385C181.661 112.845 186.616 115.702 186.616 122.804C186.616 129.905 181.641 138.524 175.509 142.038C169.378 145.551 164.402 142.721 164.402 135.626C164.402 128.531 169.378 119.933 175.509 116.385Z" fill="#4D81E7"/>
<path d="M175.511 121.963C177.5 120.815 179.113 121.744 179.113 124.014C179.045 125.264 178.684 126.48 178.058 127.565C177.432 128.649 176.56 129.57 175.511 130.254C173.522 131.402 171.909 130.473 171.909 128.203C171.976 126.953 172.338 125.737 172.964 124.653C173.589 123.568 174.462 122.647 175.511 121.963Z" fill="#4D81E7"/>
<path d="M182.529 134.212C182.529 130.439 179.884 128.908 176.61 130.794L174.559 131.976C171.292 133.863 168.64 138.456 168.64 142.229V143.248C170.533 143.87 172.912 143.535 175.475 142.038C178.315 140.286 180.716 137.909 182.495 135.086L182.529 134.212Z" fill="#4D81E7"/>
<path opacity="0.7" d="M175.511 121.963C177.5 120.815 179.113 121.744 179.113 124.014C179.045 125.264 178.684 126.48 178.058 127.565C177.432 128.649 176.56 129.57 175.511 130.254C173.522 131.402 171.909 130.473 171.909 128.203C171.976 126.953 172.338 125.737 172.964 124.653C173.589 123.568 174.462 122.647 175.511 121.963Z" fill="white"/>
<path opacity="0.7" d="M182.529 134.212C182.529 130.439 179.884 128.908 176.61 130.794L174.559 131.976C171.292 133.863 168.64 138.456 168.64 142.229V143.248C170.533 143.87 172.912 143.535 175.475 142.038C178.315 140.286 180.716 137.909 182.495 135.086L182.529 134.212Z" fill="white"/>
<path d="M155.18 159.555L198.419 134.593C198.74 134.401 199.007 134.552 199.007 134.934V139.979C198.995 140.184 198.935 140.383 198.833 140.561C198.731 140.738 198.59 140.89 198.419 141.004L155.18 165.966C154.852 166.157 154.585 166 154.585 165.624V160.58C154.597 160.374 154.657 160.174 154.76 159.996C154.864 159.818 155.008 159.667 155.18 159.555Z" fill="#4D81E7"/>
<path opacity="0.2" d="M155.18 159.555L198.419 134.593C198.74 134.401 199.007 134.552 199.007 134.934V139.979C198.995 140.184 198.935 140.383 198.833 140.561C198.731 140.738 198.59 140.89 198.419 141.004L155.18 165.966C154.852 166.157 154.585 166 154.585 165.624V160.58C154.597 160.374 154.657 160.174 154.76 159.996C154.864 159.818 155.008 159.667 155.18 159.555Z" fill="white"/>
<path d="M171.499 159.526L185.792 151.276C186.475 150.9 186.974 151.207 186.974 151.959V152.431C186.953 152.842 186.835 153.242 186.629 153.598C186.424 153.955 186.137 154.257 185.792 154.481L171.499 162.731C170.85 163.114 170.317 162.807 170.317 162.048V161.576C170.34 161.166 170.459 160.767 170.665 160.41C170.87 160.054 171.156 159.751 171.499 159.526Z" fill="#4D81E7"/>
<path opacity="0.1" d="M171.499 159.526L185.792 151.276C186.475 150.9 186.974 151.207 186.974 151.959V152.431C186.953 152.842 186.835 153.242 186.629 153.598C186.424 153.955 186.137 154.257 185.792 154.481L171.499 162.731C170.85 163.114 170.317 162.807 170.317 162.048V161.576C170.34 161.166 170.459 160.767 170.665 160.41C170.87 160.054 171.156 159.751 171.499 159.526Z" fill="black"/>
<path d="M203.593 60.5689V67.661L210.11 63.0608V56.3521L203.593 60.5689Z" fill="#4D81E7" stroke="black" stroke-width="0.383354"/>
<mask id="path-30-inside-1_828_3903" fill="white">
<path d="M212.745 170.65C212.745 170.65 204.352 159.072 203.86 157.664C203.47 156.625 203.86 155.08 203.983 154.362C204.106 153.645 204.215 152.045 204.338 151.628C204.543 150.849 203.539 151.006 202.971 151.717C202.404 152.428 202.213 153.85 201.919 154.082C201.625 154.314 199.39 151.054 198.221 149.55C197.052 148.047 196.321 147.131 195.603 147.691C195.09 148.094 195.473 148.969 196.321 150.254C196.816 150.946 197.272 151.665 197.688 152.407C197.818 152.688 197.12 152.708 196.744 153.289C196.451 153.74 196.744 154.472 196.334 154.82C196.082 155.012 195.909 155.29 195.849 155.602C195.788 155.913 195.844 156.236 196.006 156.508C196.767 157.703 197.748 158.742 198.898 159.571C200.155 160.439 200.661 160.746 201.406 161.929C202.151 163.111 208.836 175.189 209.287 175.913C209.738 176.638 210.606 178.114 211.925 178.155C213.244 178.196 224.044 168.901 224.598 168.436C226.375 166.953 226.942 166.741 227.243 168.073C227.347 168.547 227.424 169.026 227.475 169.509C227.687 171.204 228.842 177.26 228.842 177.26C228.842 177.26 234.31 179.905 238.801 178.627C243.292 177.349 244.809 175.442 244.809 175.442L242.56 171.778C243.169 170.268 245.978 164.143 246.887 159.858L232.807 157.582C232.519 157.52 232.055 157.404 231.44 157.247C230.667 157.042 228.705 156.365 227.222 157.664C222.383 161.881 212.759 170.65 212.759 170.65"/>
</mask>
<path d="M212.745 170.65C212.745 170.65 204.352 159.072 203.86 157.664C203.47 156.625 203.86 155.08 203.983 154.362C204.106 153.645 204.215 152.045 204.338 151.628C204.543 150.849 203.539 151.006 202.971 151.717C202.404 152.428 202.213 153.85 201.919 154.082C201.625 154.314 199.39 151.054 198.221 149.55C197.052 148.047 196.321 147.131 195.603 147.691C195.09 148.094 195.473 148.969 196.321 150.254C196.816 150.946 197.272 151.665 197.688 152.407C197.818 152.688 197.12 152.708 196.744 153.289C196.451 153.74 196.744 154.472 196.334 154.82C196.082 155.012 195.909 155.29 195.849 155.602C195.788 155.913 195.844 156.236 196.006 156.508C196.767 157.703 197.748 158.742 198.898 159.571C200.155 160.439 200.661 160.746 201.406 161.929C202.151 163.111 208.836 175.189 209.287 175.913C209.738 176.638 210.606 178.114 211.925 178.155C213.244 178.196 224.044 168.901 224.598 168.436C226.375 166.953 226.942 166.741 227.243 168.073C227.347 168.547 227.424 169.026 227.475 169.509C227.687 171.204 228.842 177.26 228.842 177.26C228.842 177.26 234.31 179.905 238.801 178.627C243.292 177.349 244.809 175.442 244.809 175.442L242.56 171.778C243.169 170.268 245.978 164.143 246.887 159.858L232.807 157.582C232.519 157.52 232.055 157.404 231.44 157.247C230.667 157.042 228.705 156.365 227.222 157.664C222.383 161.881 212.759 170.65 212.759 170.65" fill="#FFA8A7"/>
<path d="M203.86 157.664L204.354 157.491L204.35 157.48L203.86 157.664ZM204.338 151.628L204.84 151.776L204.842 151.769L204.844 151.761L204.338 151.628ZM195.603 147.691L195.281 147.279L195.279 147.28L195.603 147.691ZM196.321 150.254L195.884 150.543L195.889 150.551L195.895 150.559L196.321 150.254ZM197.688 152.407L198.163 152.187L198.154 152.169L198.144 152.152L197.688 152.407ZM196.744 153.289L197.183 153.575L197.184 153.573L196.744 153.289ZM196.334 154.82L196.651 155.237L196.663 155.228L196.673 155.219L196.334 154.82ZM196.006 156.508L195.556 156.776L195.56 156.783L195.565 156.79L196.006 156.508ZM198.898 159.571L198.591 159.995L198.6 160.001L198.898 159.571ZM224.598 168.436L224.262 168.034L224.261 168.035L224.598 168.436ZM227.243 168.073L227.754 167.961L227.753 167.958L227.243 168.073ZM227.475 169.509L226.955 169.564L226.956 169.574L227.475 169.509ZM228.842 177.26L228.328 177.358L228.377 177.616L228.614 177.731L228.842 177.26ZM244.809 175.442L245.219 175.768L245.447 175.481L245.255 175.168L244.809 175.442ZM242.56 171.778L242.075 171.583L241.976 171.827L242.114 172.052L242.56 171.778ZM246.887 159.858L247.399 159.966L247.513 159.429L246.97 159.341L246.887 159.858ZM232.807 157.582L232.697 158.093L232.71 158.096L232.723 158.098L232.807 157.582ZM231.44 157.247L231.305 157.753L231.31 157.754L231.44 157.247ZM227.222 157.664L227.566 158.058L227.567 158.057L227.222 157.664ZM212.745 170.65C213.169 170.343 213.169 170.343 213.169 170.343C213.169 170.343 213.169 170.343 213.169 170.343C213.169 170.342 213.168 170.342 213.168 170.341C213.167 170.34 213.165 170.338 213.163 170.335C213.159 170.329 213.153 170.321 213.145 170.31C213.129 170.288 213.106 170.256 213.075 170.213C213.014 170.128 212.923 170.003 212.808 169.844C212.578 169.525 212.249 169.067 211.852 168.514C211.058 167.407 209.994 165.917 208.915 164.384C207.836 162.85 206.744 161.274 205.891 159.996C205.465 159.357 205.101 158.795 204.829 158.352C204.546 157.89 204.393 157.604 204.354 157.491L203.86 157.664L203.366 157.836C203.449 158.075 203.667 158.459 203.937 158.899C204.218 159.359 204.591 159.933 205.02 160.577C205.88 161.866 206.978 163.45 208.059 164.986C209.14 166.523 210.206 168.016 211.001 169.124C211.399 169.678 211.729 170.137 211.959 170.456C212.075 170.616 212.165 170.741 212.227 170.827C212.258 170.869 212.282 170.902 212.297 170.924C212.305 170.935 212.311 170.943 212.316 170.949C212.318 170.952 212.319 170.954 212.32 170.955C212.321 170.956 212.321 170.957 212.321 170.957C212.321 170.957 212.322 170.957 212.322 170.957C212.322 170.957 212.322 170.958 212.745 170.65ZM203.86 157.664L204.35 157.48C204.199 157.078 204.188 156.532 204.25 155.948C204.311 155.363 204.431 154.847 204.499 154.451L203.983 154.362L203.467 154.274C203.412 154.595 203.275 155.21 203.209 155.837C203.142 156.464 203.131 157.21 203.37 157.847L203.86 157.664ZM203.983 154.362L204.499 154.451C204.564 154.071 204.624 153.467 204.681 152.938C204.71 152.667 204.738 152.412 204.767 152.2C204.797 151.976 204.823 151.837 204.84 151.776L204.338 151.628L203.836 151.48C203.793 151.628 203.758 151.845 203.729 152.061C203.699 152.288 203.669 152.556 203.64 152.827C203.581 153.381 203.525 153.936 203.467 154.274L203.983 154.362ZM204.338 151.628L204.844 151.761C204.917 151.485 204.922 151.137 204.683 150.866C204.45 150.603 204.121 150.569 203.89 150.593C203.425 150.641 202.913 150.95 202.562 151.391L202.971 151.717L203.38 152.044C203.482 151.916 203.603 151.814 203.722 151.742C203.845 151.669 203.945 151.64 203.998 151.634C204.064 151.628 203.984 151.656 203.899 151.561C203.808 151.458 203.862 151.382 203.832 151.495L204.338 151.628ZM202.971 151.717L202.562 151.391C202.21 151.831 201.996 152.457 201.845 152.916C201.763 153.165 201.701 153.365 201.639 153.526C201.609 153.605 201.585 153.657 201.567 153.69C201.544 153.73 201.55 153.706 201.594 153.671L201.919 154.082L202.243 154.493C202.361 154.399 202.437 154.28 202.483 154.196C202.534 154.103 202.578 154.001 202.616 153.902C202.69 153.709 202.766 153.466 202.84 153.242C203 152.755 203.165 152.314 203.38 152.044L202.971 151.717ZM201.919 154.082L201.594 153.671C201.783 153.522 201.977 153.579 202.014 153.592C202.059 153.607 202.07 153.622 202.041 153.6C201.988 153.56 201.898 153.474 201.769 153.332C201.516 153.053 201.184 152.636 200.814 152.15C200.098 151.21 199.21 149.97 198.634 149.229L198.221 149.55L197.808 149.872C198.4 150.634 199.214 151.777 199.981 152.784C200.353 153.272 200.708 153.721 200.994 154.035C201.133 154.189 201.275 154.332 201.406 154.432C201.468 154.479 201.559 154.542 201.669 154.58C201.771 154.616 202.018 154.671 202.243 154.493L201.919 154.082ZM198.221 149.55L198.634 149.229C198.064 148.496 197.55 147.836 197.077 147.444C196.836 147.244 196.555 147.069 196.235 147.017C195.885 146.96 195.56 147.06 195.281 147.279L195.603 147.691L195.925 148.104C196.004 148.042 196.04 148.046 196.066 148.05C196.121 148.059 196.231 148.102 196.409 148.25C196.773 148.551 197.208 149.101 197.808 149.872L198.221 149.55ZM195.603 147.691L195.279 147.28C195.041 147.467 194.903 147.72 194.862 148.006C194.823 148.274 194.872 148.547 194.953 148.802C195.115 149.306 195.459 149.898 195.884 150.543L196.321 150.254L196.758 149.966C196.335 149.326 196.064 148.838 195.95 148.483C195.894 148.308 195.89 148.206 195.898 148.156C195.902 148.125 195.908 148.117 195.927 148.103L195.603 147.691ZM196.321 150.254L195.895 150.559C196.379 151.235 196.825 151.938 197.231 152.663L197.688 152.407L198.144 152.152C197.719 151.393 197.253 150.657 196.746 149.95L196.321 150.254ZM197.688 152.407L197.213 152.627C197.189 152.575 197.165 152.482 197.193 152.371C197.219 152.271 197.273 152.216 197.287 152.203C197.296 152.194 197.285 152.205 197.154 152.277C196.949 152.389 196.572 152.593 196.305 153.005L196.744 153.289L197.184 153.573C197.293 153.405 197.452 153.307 197.658 153.194C197.732 153.154 197.894 153.07 198.009 152.961C198.076 152.897 198.166 152.79 198.207 152.633C198.25 152.465 198.219 152.309 198.163 152.187L197.688 152.407ZM196.744 153.289L196.306 153.003C196.175 153.204 196.122 153.417 196.096 153.594C196.071 153.763 196.067 153.945 196.06 154.066C196.044 154.377 196.006 154.412 195.995 154.421L196.334 154.82L196.673 155.219C197.073 154.88 197.093 154.375 197.106 154.12C197.114 153.958 197.116 153.851 197.132 153.746C197.146 153.648 197.167 153.6 197.183 153.575L196.744 153.289ZM196.334 154.82L196.017 154.404C195.663 154.674 195.42 155.064 195.335 155.502L195.849 155.602L196.362 155.702C196.398 155.516 196.501 155.351 196.651 155.237L196.334 154.82ZM195.849 155.602L195.335 155.502C195.25 155.939 195.329 156.393 195.556 156.776L196.006 156.508L196.456 156.241C196.36 156.079 196.326 155.887 196.362 155.702L195.849 155.602ZM196.006 156.508L195.565 156.79C196.361 158.04 197.388 159.128 198.592 159.995L198.898 159.571L199.204 159.146C198.108 158.357 197.173 157.366 196.448 156.227L196.006 156.508ZM198.898 159.571L198.6 160.001C199.244 160.446 199.65 160.717 199.997 161.024C200.329 161.317 200.611 161.649 200.963 162.208L201.406 161.929L201.849 161.65C201.456 161.026 201.113 160.613 200.691 160.24C200.284 159.88 199.809 159.564 199.195 159.14L198.898 159.571ZM201.406 161.929L200.963 162.208C201.326 162.784 203.173 166.079 205 169.348C206.813 172.593 208.608 175.814 208.843 176.19L209.287 175.913L209.731 175.637C209.514 175.288 207.742 172.108 205.914 168.837C204.099 165.591 202.231 162.256 201.849 161.65L201.406 161.929ZM209.287 175.913L208.843 176.19C209.061 176.54 209.418 177.139 209.9 177.65C210.379 178.158 211.049 178.652 211.909 178.678L211.925 178.155L211.942 177.632C211.483 177.618 211.058 177.353 210.661 176.932C210.266 176.512 209.964 176.011 209.731 175.637L209.287 175.913ZM211.925 178.155L211.909 178.678C212.116 178.685 212.328 178.607 212.488 178.538C212.668 178.46 212.873 178.35 213.093 178.218C213.536 177.955 214.083 177.583 214.691 177.143C215.909 176.262 217.409 175.082 218.878 173.892C221.817 171.511 224.664 169.063 224.934 168.837L224.598 168.436L224.261 168.035C223.977 168.273 221.148 170.705 218.219 173.078C216.754 174.265 215.272 175.431 214.077 176.295C213.479 176.728 212.961 177.079 212.558 177.319C212.356 177.439 212.194 177.524 212.07 177.578C211.927 177.64 211.899 177.631 211.942 177.632L211.925 178.155ZM224.598 168.436L224.933 168.838C225.375 168.469 225.726 168.192 226.011 168C226.307 167.8 226.478 167.729 226.566 167.714C226.6 167.708 226.597 167.715 226.576 167.707C226.552 167.699 226.545 167.688 226.554 167.699C226.591 167.741 226.661 167.871 226.732 168.189L227.243 168.073L227.753 167.958C227.675 167.609 227.561 167.266 227.351 167.019C227.237 166.886 227.091 166.776 226.909 166.715C226.729 166.655 226.549 166.653 226.382 166.683C226.068 166.739 225.745 166.916 225.426 167.132C225.095 167.355 224.709 167.661 224.262 168.034L224.598 168.436ZM227.243 168.073L226.732 168.186C226.831 168.641 226.906 169.101 226.955 169.564L227.475 169.509L227.996 169.454C227.943 168.952 227.862 168.454 227.754 167.961L227.243 168.073ZM227.475 169.509L226.956 169.574C227.064 170.439 227.409 172.394 227.723 174.114C227.881 174.978 228.032 175.789 228.144 176.384C228.2 176.681 228.246 176.925 228.278 177.094C228.294 177.178 228.306 177.244 228.315 177.289C228.319 177.312 228.323 177.329 228.325 177.34C228.326 177.346 228.327 177.351 228.327 177.353C228.327 177.355 228.328 177.356 228.328 177.357C228.328 177.357 228.328 177.357 228.328 177.358C228.328 177.358 228.328 177.358 228.328 177.358C228.328 177.358 228.328 177.358 228.842 177.26C229.356 177.162 229.356 177.162 229.356 177.162C229.356 177.162 229.356 177.162 229.356 177.162C229.356 177.161 229.356 177.161 229.356 177.161C229.356 177.16 229.356 177.159 229.355 177.157C229.355 177.155 229.354 177.15 229.353 177.145C229.351 177.133 229.348 177.116 229.343 177.094C229.335 177.049 229.322 176.983 229.306 176.899C229.274 176.73 229.229 176.487 229.173 176.191C229.061 175.597 228.91 174.788 228.753 173.926C228.437 172.194 228.098 170.273 227.995 169.444L227.475 169.509ZM228.842 177.26C228.614 177.731 228.614 177.731 228.615 177.731C228.615 177.731 228.615 177.731 228.615 177.731C228.615 177.732 228.616 177.732 228.616 177.732C228.617 177.732 228.618 177.733 228.62 177.734C228.623 177.735 228.628 177.738 228.634 177.74C228.646 177.746 228.663 177.754 228.685 177.764C228.729 177.785 228.792 177.814 228.875 177.85C229.039 177.922 229.277 178.024 229.576 178.141C230.173 178.374 231.017 178.672 232.006 178.929C233.968 179.44 236.566 179.807 238.944 179.13L238.801 178.627L238.658 178.123C236.545 178.725 234.163 178.409 232.269 177.916C231.329 177.672 230.526 177.388 229.957 177.166C229.674 177.055 229.449 176.959 229.297 176.892C229.221 176.859 229.163 176.832 229.125 176.814C229.106 176.805 229.091 176.799 229.082 176.794C229.077 176.792 229.074 176.791 229.072 176.79C229.071 176.789 229.071 176.789 229.07 176.789C229.07 176.789 229.07 176.789 229.07 176.789C229.07 176.789 229.07 176.789 229.07 176.789C229.07 176.789 229.07 176.789 228.842 177.26ZM238.801 178.627L238.944 179.13C241.241 178.476 242.794 177.657 243.782 176.988C244.276 176.654 244.627 176.359 244.859 176.142C244.975 176.033 245.061 175.945 245.12 175.881C245.15 175.848 245.172 175.823 245.189 175.804C245.197 175.794 245.203 175.786 245.208 175.78C245.211 175.777 245.213 175.775 245.215 175.773C245.215 175.772 245.216 175.771 245.217 175.77C245.217 175.769 245.218 175.769 245.218 175.769C245.218 175.768 245.218 175.768 245.218 175.768C245.218 175.768 245.219 175.768 244.809 175.442C244.399 175.116 244.4 175.116 244.4 175.115C244.4 175.115 244.4 175.115 244.4 175.115C244.4 175.115 244.4 175.115 244.401 175.114C244.401 175.114 244.401 175.114 244.401 175.114C244.401 175.113 244.401 175.114 244.401 175.114C244.4 175.115 244.397 175.119 244.393 175.123C244.385 175.133 244.371 175.149 244.35 175.172C244.308 175.217 244.241 175.287 244.144 175.377C243.951 175.558 243.643 175.819 243.196 176.122C242.302 176.726 240.851 177.499 238.658 178.123L238.801 178.627ZM244.809 175.442L245.255 175.168L243.006 171.504L242.56 171.778L242.114 172.052L244.363 175.716L244.809 175.442ZM242.56 171.778L243.046 171.974C243.635 170.511 246.477 164.311 247.399 159.966L246.887 159.858L246.375 159.749C245.478 163.975 242.703 170.024 242.075 171.583L242.56 171.778ZM246.887 159.858L246.97 159.341L232.89 157.065L232.807 157.582L232.723 158.098L246.803 160.374L246.887 159.858ZM232.807 157.582L232.916 157.07C232.641 157.011 232.187 156.897 231.569 156.74L231.44 157.247L231.31 157.754C231.922 157.91 232.398 158.029 232.697 158.093L232.807 157.582ZM231.44 157.247L231.574 156.741C231.217 156.646 230.464 156.404 229.619 156.368C228.761 156.332 227.751 156.505 226.877 157.27L227.222 157.664L227.567 158.057C228.176 157.524 228.89 157.385 229.575 157.414C230.276 157.444 230.889 157.642 231.305 157.753L231.44 157.247ZM227.222 157.664L226.878 157.269C224.455 159.381 220.836 162.631 217.825 165.35C216.319 166.71 214.965 167.938 213.987 168.827C213.498 169.271 213.103 169.63 212.83 169.878C212.694 170.002 212.588 170.098 212.516 170.164C212.48 170.196 212.453 170.221 212.434 170.238C212.425 170.246 212.418 170.253 212.414 170.257C212.411 170.259 212.41 170.261 212.408 170.262C212.408 170.262 212.407 170.263 212.407 170.263C212.407 170.263 212.407 170.263 212.407 170.263C212.407 170.263 212.407 170.263 212.759 170.65C213.112 171.037 213.112 171.037 213.112 171.037C213.112 171.037 213.112 171.037 213.112 171.037C213.112 171.037 213.113 171.036 213.113 171.036C213.115 171.035 213.116 171.033 213.119 171.031C213.123 171.027 213.13 171.02 213.139 171.012C213.158 170.995 213.185 170.97 213.221 170.938C213.292 170.873 213.398 170.776 213.534 170.652C213.807 170.404 214.202 170.046 214.69 169.602C215.668 168.714 217.022 167.486 218.527 166.127C221.538 163.407 225.15 160.163 227.566 158.058L227.222 157.664Z" fill="black" mask="url(#path-30-inside-1_828_3903)"/>
<path d="M240.661 241.694L238.139 245.2C239.285 245.735 240.538 246.004 241.803 245.986C244.065 246.068 244.687 245.303 244.769 245.152C245.152 244.332 244.557 242.856 244.393 241.584L240.661 241.694Z" fill="#37474F"/>
<path d="M238.282 243.519C238.282 243.519 235.22 243.321 233.108 243.062C230.996 242.802 229.321 243.827 229.813 244.695C230.305 245.563 231.474 246.288 233.292 246.896C234.844 247.422 236.71 247.798 238.323 248.263C239.936 248.728 241.057 249.336 241.993 249.008C243.039 248.646 243.49 248.229 243.401 247.463C243.173 246.374 242.89 245.298 242.554 244.237L238.282 243.519Z" fill="#37474F"/>
<path d="M244.523 238.372C244.514 238.45 244.504 238.547 244.491 238.657C244.455 238.967 244.406 239.387 244.356 239.828C244.258 240.706 244.154 241.683 244.14 242.035C244.14 242.037 244.138 242.041 244.133 242.05C244.125 242.062 244.11 242.081 244.081 242.104C244.021 242.151 243.922 242.201 243.784 242.245C243.511 242.333 243.13 242.384 242.724 242.376C242.318 242.368 241.903 242.303 241.562 242.17C241.234 242.043 240.998 241.863 240.877 241.638L240.789 238.038L244.523 238.372Z" fill="#F28F8F" stroke="black" stroke-width="0.436974"/>
<path d="M242.495 244.967C242.479 244.99 242.443 245.035 242.356 245.093C242.117 245.254 241.559 245.488 240.313 245.674C239.117 245.853 237.548 245.539 236.167 245.121C234.795 244.706 233.653 244.202 233.328 244.038C233.18 243.963 233.1 243.885 233.072 243.838C233.071 243.836 233.071 243.834 233.07 243.833H233.071C233.114 243.792 233.248 243.718 233.563 243.669C233.869 243.622 234.309 243.604 234.918 243.638C236.156 243.706 236.995 243.742 237.525 243.761C237.79 243.77 237.979 243.776 238.101 243.778C238.161 243.78 238.206 243.781 238.235 243.781C238.25 243.781 238.26 243.781 238.268 243.781C238.271 243.781 238.274 243.782 238.276 243.782H238.279L238.661 243.785L238.526 243.428L237.818 241.551L241.471 240.46L242.495 244.967Z" fill="#FFA8A7" stroke="black" stroke-width="0.523403"/>
<path d="M248.497 159.908C248.597 160.226 248.741 160.681 248.915 161.23C249.263 162.329 249.731 163.805 250.212 165.316C251.172 168.334 252.186 171.503 252.39 172.066C252.798 173.193 253.202 174.255 252.483 175.511C252.024 176.312 250.569 178.348 249.216 180.2C248.542 181.122 247.897 181.994 247.421 182.635C247.183 182.955 246.987 183.218 246.851 183.4C246.839 183.416 246.826 183.432 246.815 183.446L244.04 180.732L247.5 174.399L247.565 174.279L247.505 174.157L244.408 167.897L247.05 160.031L248.415 159.651C248.438 159.723 248.466 159.809 248.497 159.908Z" fill="#F28F8F" stroke="black" stroke-width="0.523403"/>
<path d="M229.48 140.12C231.081 137.151 234.695 135.623 239.163 136.2V136.201C241.038 136.447 243.331 137.997 244.662 140.384L244.788 140.619C245.499 141.994 245.907 144.117 246.182 146.242C246.318 147.294 246.42 148.326 246.512 149.242C246.563 149.755 246.613 150.237 246.664 150.664L229.32 144.419C229.012 143.776 228.854 143.07 228.865 142.354C228.877 141.574 229.086 140.809 229.474 140.131L229.48 140.12Z" fill="#37474F" stroke="black" stroke-width="1.04681"/>
<path d="M228.572 148.383C228.435 148.339 228.301 148.285 228.173 148.218C228.184 148.169 228.201 148.106 228.228 148.029C228.299 147.819 228.413 147.55 228.537 147.28C228.547 147.259 228.556 147.239 228.565 147.218L228.572 148.383Z" fill="#FFA8A7" stroke="black" stroke-width="0.523403"/>
<path d="M235.848 138.934C237.09 138.969 238.303 139.32 239.373 139.951H239.374C240.362 140.571 240.966 141.927 241.126 143.562C241.286 145.185 241 147.016 240.288 148.501C239.691 149.743 238.555 150.792 237.4 151.569C236.245 152.347 235.107 152.829 234.545 152.96C233.966 153.095 232.98 153.212 232.078 153.247C231.627 153.265 231.205 153.262 230.871 153.232C230.704 153.218 230.564 153.198 230.457 153.172C230.342 153.144 230.291 153.116 230.276 153.104L230.275 153.104L230.165 153.008C229.905 152.754 229.627 152.283 229.417 151.379C229.206 150.476 229.067 149.164 229.068 147.254L229.077 146.398C229.12 144.096 229.646 142.621 230.287 141.632C230.922 140.651 231.685 140.127 232.271 139.746C233.375 139.178 234.606 138.898 235.848 138.934Z" fill="#FFA8A7" stroke="black" stroke-width="0.523403"/>
<path d="M244.768 175.415C246.873 178.695 248.869 181.566 249.307 185.271C250.209 193.056 247.256 201.955 246.621 207.717C247.816 209.356 248.505 211.31 248.603 213.336C248.603 215.721 244.768 238.175 244.768 238.175C244.768 238.175 241.979 239.022 240.565 237.799L237.933 196.494L239.3 191.463L244.768 175.415Z" fill="#4D81E7"/>
<path opacity="0.2" d="M244.914 176.608C246.732 179.431 248.295 181.925 248.744 185L248.787 185.333C249.228 189.146 248.727 193.254 248.025 197.16C247.33 201.025 246.42 204.759 246.1 207.66L246.078 207.862L246.198 208.026C247.331 209.579 247.984 211.43 248.079 213.35C248.077 213.616 248.022 214.189 247.918 215.023C247.814 215.86 247.665 216.928 247.486 218.147C247.127 220.584 246.648 223.611 246.168 226.566C245.689 229.52 245.21 232.401 244.851 234.542C244.671 235.613 244.521 236.499 244.417 237.118C244.372 237.378 244.336 237.59 244.309 237.75C244.275 237.757 244.24 237.768 244.202 237.776C243.935 237.833 243.567 237.896 243.162 237.923C242.398 237.975 241.616 237.89 241.072 237.526L238.46 196.546L239.801 191.614L244.914 176.608Z" fill="black" stroke="black" stroke-width="1.04681"/>
<path d="M237.933 196.494L239.3 191.464C241.918 190.774 244.442 189.772 246.819 188.477C246.819 188.477 245.397 191.067 241.31 192.489L239.198 198.948L239.02 213.746L237.933 196.494Z" fill="#4D81E7"/>
<path opacity="0.3" d="M237.933 196.494L239.3 191.464C241.918 190.774 244.442 189.772 246.819 188.477C246.819 188.477 245.397 191.067 241.31 192.489L239.198 198.948L239.02 213.746L237.933 196.494Z" fill="black"/>
<path d="M244.768 175.415C245.895 177.26 248.589 180.404 248.014 183.432C247.331 187.096 245.349 189.673 239.32 191.463L233.661 211.969C233.661 211.969 236.607 214.703 237.509 217.348C238.411 219.993 241.665 240.143 241.665 240.143C241.665 240.143 240.653 241.79 237.475 241.394C237.475 241.394 226.395 216.104 225.616 214.457C224.67 212.788 224.339 210.842 224.679 208.954C225.028 206.302 228.78 177.274 228.78 177.274L244.768 175.415Z" fill="#4D81E7"/>
<path opacity="0.2" d="M244.501 175.971C244.764 176.379 245.08 176.838 245.396 177.311C245.796 177.908 246.209 178.552 246.567 179.226C247.292 180.588 247.753 181.998 247.5 183.334V183.336C247.172 185.094 246.543 186.547 245.303 187.779C244.053 189.021 242.14 190.079 239.171 190.961L238.893 191.044L238.815 191.324L233.156 211.83L233.071 212.136L233.305 212.352L233.312 212.359C233.316 212.363 233.324 212.37 233.334 212.379C233.354 212.399 233.385 212.429 233.425 212.467C233.504 212.544 233.62 212.657 233.761 212.802C234.044 213.093 234.43 213.508 234.845 214.002C235.683 215.003 236.594 216.288 237.014 217.517C237.225 218.135 237.59 219.847 238.024 222.124C238.455 224.38 238.946 227.144 239.409 229.827C239.872 232.509 240.307 235.109 240.626 237.039C240.785 238.003 240.916 238.8 241.007 239.356C241.052 239.631 241.086 239.848 241.11 239.996C241.101 240.006 241.093 240.018 241.082 240.029C240.969 240.145 240.783 240.306 240.507 240.459C239.998 240.743 239.151 241.02 237.831 240.905C237.83 240.903 237.83 240.902 237.829 240.9C237.748 240.714 237.629 240.441 237.477 240.094C237.172 239.4 236.736 238.405 236.211 237.207C235.16 234.81 233.75 231.597 232.316 228.333C229.452 221.811 226.483 215.065 226.089 214.233L226.081 214.215L226.071 214.199L225.912 213.903C225.15 212.409 224.895 210.704 225.194 209.047L225.196 209.035L225.198 209.023C225.373 207.696 226.398 199.775 227.38 192.187C227.871 188.393 228.351 184.681 228.708 181.918C228.887 180.537 229.034 179.392 229.138 178.593C229.183 178.24 229.219 177.954 229.246 177.746L244.501 175.971Z" fill="black" stroke="black" stroke-width="1.04681"/>
<path d="M246.847 159.817L232.766 157.54C232.479 157.479 232.015 157.363 231.399 157.206C231.399 157.206 230.798 166.037 227.182 168.06C227.271 168.484 227.346 168.955 227.415 169.495C227.626 171.19 228.782 177.246 228.782 177.246C228.782 177.246 234.25 179.891 238.74 178.613C243.231 177.335 244.748 175.428 244.748 175.428L242.5 171.764C243.128 170.24 245.958 164.116 246.847 159.817Z" fill="#4D81E7"/>
<path opacity="0.7" d="M246.847 159.817L232.766 157.54C232.479 157.479 232.015 157.363 231.399 157.206C231.399 157.206 230.798 166.037 227.182 168.06C227.271 168.484 227.346 168.955 227.415 169.495C227.626 171.19 228.782 177.246 228.782 177.246C228.782 177.246 234.25 179.891 238.74 178.613C243.231 177.335 244.748 175.428 244.748 175.428L242.5 171.764C243.128 170.24 245.958 164.116 246.847 159.817Z" fill="white"/>
<path d="M243.135 170.309C241.265 171.431 239.305 172.398 237.277 173.2C239.118 173.163 240.921 172.665 242.519 171.751L243.135 170.309Z" fill="#4D81E7"/>
<path d="M233.037 136.227C234.745 135.701 237.149 135.619 240.524 136.378C243.06 136.948 244.689 139.316 245.684 142.294C246.675 145.259 247.007 148.745 247.007 151.389V151.417L247.014 151.445C247.322 152.828 247.719 154.171 248.107 155.445C248.496 156.723 248.874 157.928 249.154 159.048C249.717 161.306 249.844 163.109 248.929 164.387C247.209 166.791 244.505 167.803 241.836 167.918C239.16 168.033 236.568 167.243 235.114 166.104C233.69 164.988 233.118 163.024 232.935 160.939C232.753 158.862 232.961 156.75 233.027 155.386C233.092 154.042 233.183 152.567 233.259 151.428C233.297 150.858 233.332 150.373 233.356 150.03C233.363 149.936 233.368 149.853 233.374 149.781C233.722 149.828 234.079 149.799 234.417 149.694C234.856 149.559 235.248 149.303 235.547 148.955L235.546 148.954C236.119 148.346 236.386 147.505 236.302 146.757C236.216 145.995 235.758 145.308 234.879 145.111C234.002 144.915 233.386 145.346 233.012 145.79C232.875 145.953 232.766 146.121 232.684 146.268C231.895 145.143 230.945 144.397 230.165 143.924C229.73 143.66 229.346 143.48 229.07 143.365C228.955 143.318 228.858 143.282 228.784 143.256C228.777 143.188 228.769 143.101 228.763 142.995C228.747 142.726 228.739 142.343 228.771 141.894C228.835 140.991 229.058 139.833 229.684 138.772C230.307 137.719 231.335 136.75 233.037 136.227Z" fill="#37474F" stroke="black" stroke-width="0.523403"/>
<path d="M152.207 189.102L152.107 182.099C152.103 181.801 152.265 181.525 152.527 181.383L161.397 176.569C161.932 176.279 162.582 176.666 162.582 177.274L162.582 184.273C162.582 184.566 162.422 184.835 162.166 184.976L153.394 189.793C152.864 190.084 152.215 189.706 152.207 189.102Z" fill="#4D81E7" stroke="black" stroke-width="0.400993"/>
<path d="M152.207 203.611L152.107 196.608C152.103 196.31 152.265 196.034 152.527 195.892L161.397 191.078C161.932 190.788 162.582 191.175 162.582 191.783L162.582 198.783C162.582 199.075 162.422 199.345 162.166 199.486L153.394 204.303C152.864 204.594 152.215 204.216 152.207 203.611Z" fill="#4D81E7" stroke="black" stroke-width="0.400993"/>
<path d="M152.207 218.12L152.107 211.118C152.103 210.82 152.265 210.544 152.527 210.402L161.397 205.587C161.932 205.297 162.582 205.684 162.582 206.292L162.582 213.292C162.582 213.585 162.422 213.854 162.166 213.995L153.394 218.812C152.864 219.103 152.215 218.725 152.207 218.12Z" fill="#4D81E7" stroke="black" stroke-width="0.400993"/>
<path d="M169.558 179.478L169.459 172.475C169.455 172.177 169.616 171.901 169.878 171.759L178.749 166.945C179.283 166.655 179.933 167.042 179.933 167.65L179.933 174.649C179.933 174.942 179.774 175.211 179.517 175.352L170.746 180.169C170.216 180.46 169.567 180.082 169.558 179.478Z" stroke="#263238" stroke-width="0.400993"/>
<path d="M169.558 193.987L169.459 186.984C169.455 186.686 169.616 186.41 169.878 186.268L178.749 181.454C179.283 181.164 179.933 181.551 179.933 182.159L179.933 189.159C179.933 189.451 179.774 189.721 179.517 189.862L170.746 194.678C170.216 194.97 169.567 194.592 169.558 193.987Z" fill="#4D81E7" stroke="black" stroke-width="0.400993"/>
<path d="M169.558 208.496L169.459 201.494C169.455 201.196 169.616 200.92 169.878 200.777L178.749 195.963C179.283 195.673 179.933 196.06 179.933 196.668L179.933 203.668C179.933 203.961 179.774 204.23 179.517 204.371L170.746 209.188C170.216 209.479 169.567 209.101 169.558 208.496Z" fill="#4D81E7" stroke="black" stroke-width="0.400993"/>
<path d="M186.4 169.854L186.301 162.851C186.296 162.553 186.458 162.277 186.72 162.135L195.591 157.321C196.125 157.031 196.775 157.418 196.775 158.026L196.775 165.025C196.775 165.318 196.616 165.587 196.359 165.728L187.588 170.545C187.058 170.836 186.408 170.458 186.4 169.854Z" stroke="#263238" stroke-width="0.400993"/>
<path d="M186.4 184.363L186.301 177.36C186.296 177.062 186.458 176.786 186.72 176.644L195.591 171.83C196.125 171.54 196.775 171.927 196.775 172.535L196.775 179.535C196.775 179.827 196.616 180.097 196.359 180.238L187.588 185.054C187.058 185.346 186.408 184.968 186.4 184.363Z" stroke="#263238" stroke-width="0.400993"/>
<path d="M186.4 198.872L186.301 191.87C186.296 191.572 186.458 191.296 186.72 191.153L195.591 186.339C196.125 186.049 196.775 186.436 196.775 187.044L196.775 194.044C196.775 194.337 196.616 194.606 196.359 194.747L187.588 199.564C187.058 199.855 186.408 199.477 186.4 198.872Z" fill="#4D81E7" stroke="#263238" stroke-width="0.400993"/>
<path d="M99.5127 81.8462L182.892 36.2271M99.5127 87.4049L119.447 77.0543M99.5127 93.3468L130.373 77.0543M99.5127 99.8639L171.2 60.5701" stroke="black" stroke-width="0.383354"/>
</svg>
