<svg width="28" height="28" viewBox="0 0 28 28" fill="none" xmlns="http://www.w3.org/2000/svg">
<path d="M13.9998 0.666504C12.2489 0.666504 10.5151 1.01138 8.89739 1.68144C7.27972 2.35151 5.80986 3.33363 4.57175 4.57175C2.07126 7.07223 0.666504 10.4636 0.666504 13.9998C0.666504 17.5361 2.07126 20.9274 4.57175 23.4279C5.80986 24.666 7.27972 25.6482 8.89739 26.3182C10.5151 26.9883 12.2489 27.3332 13.9998 27.3332C17.5361 27.3332 20.9274 25.9284 23.4279 23.4279C25.9284 20.9274 27.3332 17.5361 27.3332 13.9998C27.3332 12.2489 26.9883 10.5151 26.3182 8.89739C25.6482 7.27972 24.666 5.80986 23.4279 4.57175C22.1898 3.33363 20.72 2.35151 19.1023 1.68144C17.4846 1.01138 15.7508 0.666504 13.9998 0.666504ZM7.4265 22.3732C7.99984 21.1732 11.4932 19.9998 13.9998 19.9998C16.5065 19.9998 19.9998 21.1732 20.5732 22.3732C18.7053 23.8605 16.3875 24.6692 13.9998 24.6665C11.5198 24.6665 9.23984 23.8132 7.4265 22.3732ZM22.4798 20.4398C20.5732 18.1198 15.9465 17.3332 13.9998 17.3332C12.0532 17.3332 7.4265 18.1198 5.51984 20.4398C4.1016 18.5926 3.33292 16.3287 3.33317 13.9998C3.33317 8.11984 8.11984 3.33317 13.9998 3.33317C19.8798 3.33317 24.6665 8.11984 24.6665 13.9998C24.6665 16.4265 23.8398 18.6665 22.4798 20.4398ZM13.9998 5.99984C11.4132 5.99984 9.33317 8.07984 9.33317 10.6665C9.33317 13.2532 11.4132 15.3332 13.9998 15.3332C16.5865 15.3332 18.6665 13.2532 18.6665 10.6665C18.6665 8.07984 16.5865 5.99984 13.9998 5.99984ZM13.9998 12.6665C13.4694 12.6665 12.9607 12.4558 12.5856 12.0807C12.2106 11.7056 11.9998 11.1969 11.9998 10.6665C11.9998 10.1361 12.2106 9.62736 12.5856 9.25229C12.9607 8.87722 13.4694 8.6665 13.9998 8.6665C14.5303 8.6665 15.039 8.87722 15.4141 9.25229C15.7891 9.62736 15.9998 10.1361 15.9998 10.6665C15.9998 11.1969 15.7891 11.7056 15.4141 12.0807C15.039 12.4558 14.5303 12.6665 13.9998 12.6665Z" fill="#1D61E7"/>
</svg>
