<svg width="15" height="16" viewBox="0 0 15 16" fill="none" xmlns="http://www.w3.org/2000/svg">
<path d="M0 7.16667H6.66667V0.5H0V7.16667ZM1.66667 2.16667H5V5.5H1.66667V2.16667ZM0 15.5H6.66667V8.83333H0V15.5ZM1.66667 10.5H5V13.8333H1.66667V10.5ZM8.33333 0.5V7.16667H15V0.5H8.33333ZM13.3333 5.5H10V2.16667H13.3333V5.5ZM13.3333 13.8333H15V15.5H13.3333V13.8333ZM8.33333 8.83333H10V10.5H8.33333V8.83333ZM10 10.5H11.6667V12.1667H10V10.5ZM8.33333 12.1667H10V13.8333H8.33333V12.1667ZM10 13.8333H11.6667V15.5H10V13.8333ZM11.6667 12.1667H13.3333V13.8333H11.6667V12.1667ZM11.6667 8.83333H13.3333V10.5H11.6667V8.83333ZM13.3333 10.5H15V12.1667H13.3333V10.5Z" fill="white"/>
</svg>
