<svg width="40" height="41" viewBox="0 0 40 41" fill="none" xmlns="http://www.w3.org/2000/svg">
<rect y="0.75" width="40" height="40" rx="20" fill="#E3ECFF"/>
<path d="M28 20.75V15.75H30V21.75H28M28 25.75H30V23.75H28M18 21.75C20.67 21.75 26 23.09 26 25.75V28.75H10V25.75C10 23.09 15.33 21.75 18 21.75ZM18 12.75C19.0609 12.75 20.0783 13.1714 20.8284 13.9216C21.5786 14.6717 22 15.6891 22 16.75C22 17.8109 21.5786 18.8283 20.8284 19.5784C20.0783 20.3286 19.0609 20.75 18 20.75C16.9391 20.75 15.9217 20.3286 15.1716 19.5784C14.4214 18.8283 14 17.8109 14 16.75C14 15.6891 14.4214 14.6717 15.1716 13.9216C15.9217 13.1714 16.9391 12.75 18 12.75ZM18 23.65C15.03 23.65 11.9 25.11 11.9 25.75V26.85H24.1V25.75C24.1 25.11 20.97 23.65 18 23.65ZM18 14.65C17.443 14.65 16.9089 14.8712 16.5151 15.2651C16.1212 15.6589 15.9 16.193 15.9 16.75C15.9 17.307 16.1212 17.8411 16.5151 18.2349C16.9089 18.6288 17.443 18.85 18 18.85C18.557 18.85 19.0911 18.6288 19.4849 18.2349C19.8788 17.8411 20.1 17.307 20.1 16.75C20.1 16.193 19.8788 15.6589 19.4849 15.2651C19.0911 14.8712 18.557 14.65 18 14.65Z" fill="#1D61E7"/>
</svg>
