<svg width="41" height="41" viewBox="0 0 41 41" fill="none" xmlns="http://www.w3.org/2000/svg">
<rect x="0.332031" y="0.75" width="40" height="40" rx="20" fill="#E3ECFF"/>
<path d="M19.332 16.75H21.332V22.75H19.332V16.75ZM23.332 9.75H17.332V11.75H23.332V9.75ZM20.332 28.75C16.462 28.75 13.332 25.62 13.332 21.75C13.332 17.88 16.462 14.75 20.332 14.75C24.202 14.75 27.332 17.88 27.332 21.75C28.032 21.75 28.692 21.88 29.332 22.1V21.75C29.332 19.63 28.592 17.68 27.362 16.14L28.782 14.72C28.332 14.21 27.882 13.75 27.372 13.31L25.952 14.75C24.402 13.49 22.452 12.75 20.332 12.75C17.9451 12.75 15.6559 13.6982 13.9681 15.386C12.2802 17.0739 11.332 19.3631 11.332 21.75C11.332 24.1369 12.2802 26.4261 13.9681 28.114C15.6559 29.8018 17.9451 30.75 20.332 30.75C20.922 30.75 21.492 30.69 22.042 30.58C21.732 30 21.512 29.35 21.412 28.66C21.052 28.71 20.702 28.75 20.332 28.75ZM29.672 24.59L26.082 28.18L24.492 26.59L23.332 27.75L26.082 30.75L30.832 26L29.672 24.59Z" fill="#1D61E7"/>
</svg>
