<svg width="41" height="41" viewBox="0 0 41 41" fill="none" xmlns="http://www.w3.org/2000/svg">
<rect x="0.332031" y="0.25" width="40" height="40" rx="20" fill="#E3ECFF"/>
<path d="M19.332 16.25H21.332V22.25H19.332V16.25ZM23.332 9.25H17.332V11.25H23.332V9.25ZM20.332 28.25C16.462 28.25 13.332 25.12 13.332 21.25C13.332 17.38 16.462 14.25 20.332 14.25C23.872 14.25 26.782 16.87 27.262 20.28C27.982 20.33 28.672 20.48 29.332 20.75C29.2118 18.8856 28.5244 17.1026 27.362 15.64L28.782 14.22C28.332 13.71 27.882 13.25 27.372 12.81L25.952 14.25C24.402 12.99 22.452 12.25 20.332 12.25C17.9451 12.25 15.6559 13.1982 13.9681 14.886C12.2802 16.5739 11.332 18.8631 11.332 21.25C11.332 23.6369 12.2802 25.9261 13.9681 27.614C15.6559 29.3018 17.9451 30.25 20.332 30.25C20.672 30.25 21.002 30.25 21.332 30.19C20.962 29.6 20.682 28.94 20.512 28.25H20.332ZM30.332 26.75V22.75L29.162 23.92C28.7903 23.5487 28.349 23.2542 27.8634 23.0535C27.3778 22.8527 26.8575 22.7496 26.332 22.75C24.122 22.75 22.332 24.54 22.332 26.75C22.332 28.96 24.122 30.75 26.332 30.75C28.012 30.75 29.452 29.72 30.042 28.25H28.332C28.0258 28.6572 27.6026 28.9611 27.1189 29.121C26.6352 29.281 26.1142 29.2893 25.6256 29.145C25.137 29.0006 24.7042 28.7105 24.3851 28.3133C24.066 27.9162 23.8759 27.4311 23.8401 26.9229C23.8044 26.4147 23.9247 25.9077 24.1851 25.4698C24.4455 25.0319 24.8334 24.684 25.297 24.4727C25.7605 24.2613 26.2776 24.1967 26.7789 24.2874C27.2802 24.378 27.7419 24.6197 28.102 24.98L26.332 26.75H30.332Z" fill="#1D61E7"/>
</svg>
