<svg width="25" height="14" viewBox="0 0 25 14" fill="none" xmlns="http://www.w3.org/2000/svg">
<path d="M13.5 6C14.0933 6 14.6734 5.82405 15.1667 5.49441C15.6601 5.16477 16.0446 4.69623 16.2716 4.14805C16.4987 3.59987 16.5581 2.99667 16.4424 2.41473C16.3266 1.83279 16.0409 1.29824 15.6213 0.878681C15.2018 0.459123 14.6672 0.173401 14.0853 0.0576455C13.5033 -0.0581102 12.9001 0.00129986 12.3519 0.228363C11.8038 0.455426 11.3352 0.839943 11.0056 1.33329C10.6759 1.82664 10.5 2.40666 10.5 3C10.5 3.79565 10.8161 4.55871 11.3787 5.12132C11.9413 5.68393 12.7044 6 13.5 6ZM13.5 2C13.6978 2 13.8911 2.05865 14.0556 2.16853C14.22 2.27841 14.3482 2.43459 14.4239 2.61732C14.4996 2.80004 14.5194 3.00111 14.4808 3.19509C14.4422 3.38907 14.347 3.56726 14.2071 3.70711C14.0673 3.84696 13.8891 3.9422 13.6951 3.98079C13.5011 4.01937 13.3 3.99957 13.1173 3.92388C12.9346 3.84819 12.7784 3.72002 12.6685 3.55557C12.5586 3.39112 12.5 3.19778 12.5 3C12.5 2.73478 12.6054 2.48043 12.7929 2.29289C12.9804 2.10536 13.2348 2 13.5 2ZM17.61 5.86C18.1951 5.02103 18.5087 4.02282 18.5087 3C18.5087 1.97718 18.1951 0.97897 17.61 0.140001C17.8976 0.0472552 18.1979 1.87014e-05 18.5 1.1415e-06C19.2956 1.1415e-06 20.0587 0.316072 20.6213 0.878681C21.1839 1.44129 21.5 2.20435 21.5 3C21.5 3.79565 21.1839 4.55871 20.6213 5.12132C20.0587 5.68393 19.2956 6 18.5 6C18.1979 5.99998 17.8976 5.95275 17.61 5.86ZM13.5 8C7.5 8 7.5 12 7.5 12V14H19.5V12C19.5 12 19.5 8 13.5 8ZM9.5 12C9.5 11.71 9.82 10 13.5 10C17 10 17.44 11.56 17.5 12M24.5 12V14H21.5V12C21.4766 11.2566 21.3054 10.5254 20.9964 9.84891C20.6873 9.17244 20.2466 8.5643 19.7 8.06C24.5 8.55 24.5 12 24.5 12ZM8.5 7H5.5V10H3.5V7H0.5V5H3.5V2H5.5V5H8.5V7Z" fill="black"/>
</svg>
