<svg width="41" height="41" viewBox="0 0 41 41" fill="none" xmlns="http://www.w3.org/2000/svg">
<rect x="0.666016" y="0.25" width="40" height="40" rx="20" fill="#E3ECFF"/>
<path d="M17.666 16.25H19.666V22.25H17.666V16.25ZM21.666 9.25H15.666V11.25H21.666V9.25ZM25.696 15.64C26.9721 17.2313 27.667 19.2103 27.666 21.25C27.666 26.22 23.666 30.25 18.666 30.25C16.2791 30.25 13.9899 29.3018 12.3021 27.614C10.6142 25.9261 9.66602 23.6369 9.66602 21.25C9.66602 18.8631 10.6142 16.5739 12.3021 14.886C13.9899 13.1982 16.2791 12.25 18.666 12.25C20.786 12.25 22.736 12.99 24.286 14.25L25.706 12.81C26.216 13.25 26.666 13.71 27.116 14.22L25.696 15.64ZM25.666 21.25C25.666 17.38 22.536 14.25 18.666 14.25C14.796 14.25 11.666 17.38 11.666 21.25C11.666 25.12 14.796 28.25 18.666 28.25C22.536 28.25 25.666 25.12 25.666 21.25ZM29.666 15.25V21.25H31.666V15.25H29.666ZM29.666 25.25H31.666V23.25H29.666V25.25Z" fill="#1D61E7"/>
</svg>
