<svg width="21" height="20" viewBox="0 0 21 20" fill="none" xmlns="http://www.w3.org/2000/svg">
<path d="M4.35 15.1C5.2 14.45 6.15 13.9377 7.2 13.563C8.25 13.1883 9.35 13.0007 10.5 13C11.65 12.9993 12.75 13.187 13.8 13.563C14.85 13.939 15.8 14.4513 16.65 15.1C17.2333 14.4167 17.6877 13.6417 18.013 12.775C18.3383 11.9083 18.5007 10.9833 18.5 10C18.5 7.78333 17.721 5.89567 16.163 4.337C14.605 2.77833 12.7173 1.99933 10.5 2C8.28267 2.00067 6.395 2.78 4.837 4.338C3.279 5.896 2.5 7.78333 2.5 10C2.5 10.9833 2.66267 11.9083 2.988 12.775C3.31333 13.6417 3.76733 14.4167 4.35 15.1ZM10.5 11C9.51667 11 8.68734 10.6627 8.012 9.988C7.33667 9.31333 6.99933 8.484 7 7.5C7.00067 6.516 7.33833 5.68667 8.013 5.012C8.68767 4.33733 9.51667 4 10.5 4C11.4833 4 12.3127 4.33767 12.988 5.013C13.6633 5.68833 14.0007 6.51733 14 7.5C13.9993 8.48267 13.662 9.312 12.988 9.988C12.314 10.664 11.4847 11.0013 10.5 11ZM10.5 20C9.11667 20 7.81667 19.7373 6.6 19.212C5.38334 18.6867 4.325 17.9743 3.425 17.075C2.525 16.1757 1.81267 15.1173 1.288 13.9C0.763335 12.6827 0.500668 11.3827 0.500001 10C0.499335 8.61733 0.762001 7.31733 1.288 6.1C1.814 4.88267 2.52633 3.82433 3.425 2.925C4.32367 2.02567 5.382 1.31333 6.6 0.788C7.818 0.262667 9.118 0 10.5 0C11.882 0 13.182 0.262667 14.4 0.788C15.618 1.31333 16.6763 2.02567 17.575 2.925C18.4737 3.82433 19.1863 4.88267 19.713 6.1C20.2397 7.31733 20.502 8.61733 20.5 10C20.498 11.3827 20.2353 12.6827 19.712 13.9C19.1887 15.1173 18.4763 16.1757 17.575 17.075C16.6737 17.9743 15.6153 18.687 14.4 19.213C13.1847 19.739 11.8847 20.0013 10.5 20Z" fill="black"/>
</svg>
