<svg width="23" height="22" viewBox="0 0 23 22" fill="none" xmlns="http://www.w3.org/2000/svg">
<path d="M4.5 4H6.5V6H4.5V4ZM0.5 0H10.5V10H0.5V0ZM2.5 2V8H8.5V2H2.5ZM4.5 16H6.5V18H4.5V16ZM0.5 12H10.5V22H0.5V12ZM2.5 14V20H8.5V14H2.5ZM12.5 12H16.5V14H18.5V12H22.5V14H18.5V16H22.5V22H18.5V20H14.5V22H12.5V20H14.5V18H12.5V12ZM20.5 20V18H18.5V20H20.5ZM18.5 16H16.5V14H14.5V18H18.5V16ZM22.2 2.35L21.2 3.35L19.15 1.35L20.15 0.35C20.35 0.14 20.69 0.13 20.92 0.35L22.2 1.58C22.41 1.78 22.42 2.12 22.2 2.35ZM12.5 7.94L18.57 1.88L20.62 3.93L14.56 10H12.5V7.94Z" fill="black"/>
</svg>
