<svg width="22" height="19" viewBox="0 0 22 19" fill="none" xmlns="http://www.w3.org/2000/svg">
<path d="M2.5 0H16.5C17.0304 0 17.5391 0.210714 17.9142 0.585786C18.2893 0.960859 18.5 1.46957 18.5 2V9.08C16.9954 8.8262 15.4506 9.15518 14.18 10H10.5V14H11.58C11.47 14.68 11.47 15.35 11.58 16H2.5C1.96957 16 1.46086 15.7893 1.08579 15.4142C0.710714 15.0391 0.5 14.5304 0.5 14V2C0.5 0.9 1.4 0 2.5 0ZM2.5 4V8H8.5V4H2.5ZM10.5 4V8H16.5V4H10.5ZM2.5 10V14H8.5V10H2.5ZM21.5 19V18C21.5 16.67 18.83 16 17.5 16C16.17 16 13.5 16.67 13.5 18V19H21.5ZM17.5 11C16.4 11 15.5 11.9 15.5 13C15.5 14.1 16.4 15 17.5 15C18.6 15 19.5 14.11 19.5 13C19.5 11.89 18.61 11 17.5 11Z" fill="black"/>
</svg>
