<svg width="24" height="24" viewBox="0 0 24 24" fill="none" xmlns="http://www.w3.org/2000/svg">
<path d="M4 3H18C18.5304 3 19.0391 3.21071 19.4142 3.58579C19.7893 3.96086 20 4.46957 20 5V12.08C18.4954 11.8262 16.9506 12.1552 15.68 13H12V17H13.08C12.97 17.68 12.97 18.35 13.08 19H4C3.46957 19 2.96086 18.7893 2.58579 18.4142C2.21071 18.0391 2 17.5304 2 17V5C2 3.9 2.9 3 4 3ZM4 7V11H10V7H4ZM12 7V11H18V7H12ZM4 13V17H10V13H4ZM23 22V21C23 19.67 20.33 19 19 19C17.67 19 15 19.67 15 21V22H23ZM19 14C17.9 14 17 14.9 17 16C17 17.1 17.9 18 19 18C20.1 18 21 17.11 21 16C21 14.89 20.11 14 19 14Z" fill="black"/>
</svg>
