<svg width="40" height="41" viewBox="0 0 40 41" fill="none" xmlns="http://www.w3.org/2000/svg">
<rect y="0.25" width="40" height="40" rx="20" fill="#E3ECFF"/>
<path d="M24.5 24.5L27.36 26.19L26.61 27.41L23 25.25V20.25H24.5V24.5ZM31 24.25C31 28.12 27.87 31.25 24 31.25C21.62 31.25 19.53 30.06 18.26 28.25H12V20.25H9L19 11.25L26 17.54C28.89 18.4 31 21.08 31 24.25ZM17.29 26.25C17.11 25.62 17 24.95 17 24.25C17 20.79 19.5 17.93 22.8 17.36L19 13.94L14 18.44V26.25H17.29ZM29 24.25C29 21.49 26.76 19.25 24 19.25C21.24 19.25 19 21.49 19 24.25C19 27.01 21.24 29.25 24 29.25C26.76 29.25 29 27.01 29 24.25Z" fill="#1D61E7"/>
</svg>
