<svg width="41" height="41" viewBox="0 0 41 41" fill="none" xmlns="http://www.w3.org/2000/svg">
<rect x="0.666016" y="0.75" width="40" height="40" rx="20" fill="#E3ECFF"/>
<g clip-path="url(#clip0_1144_1791)">
<path d="M20.666 13.75C19.7378 13.75 18.8475 14.1187 18.1911 14.7751C17.5348 15.4315 17.166 16.3217 17.166 17.25C17.166 18.1783 17.5348 19.0685 18.1911 19.7249C18.8475 20.3813 19.7378 20.75 20.666 20.75C21.5943 20.75 22.4845 20.3813 23.1409 19.7249C23.7973 19.0685 24.166 18.1783 24.166 17.25C24.166 16.3217 23.7973 15.4315 23.1409 14.7751C22.4845 14.1187 21.5943 13.75 20.666 13.75ZM20.666 15.75C21.0638 15.75 21.4454 15.908 21.7267 16.1893C22.008 16.4706 22.166 16.8522 22.166 17.25C22.166 17.6478 22.008 18.0294 21.7267 18.3107C21.4454 18.592 21.0638 18.75 20.666 18.75C20.2682 18.75 19.8867 18.592 19.6054 18.3107C19.3241 18.0294 19.166 17.6478 19.166 17.25C19.166 16.8522 19.3241 16.4706 19.6054 16.1893C19.8867 15.908 20.2682 15.75 20.666 15.75ZM14.166 16.75C13.503 16.75 12.8671 17.0134 12.3982 17.4822C11.9294 17.9511 11.666 18.587 11.666 19.25C11.666 20.19 12.196 21 12.956 21.43C13.316 21.63 13.726 21.75 14.166 21.75C14.606 21.75 15.016 21.63 15.376 21.43C15.746 21.22 16.056 20.92 16.286 20.56C15.5575 19.6106 15.1637 18.4467 15.166 17.25V16.97C14.866 16.83 14.526 16.75 14.166 16.75ZM27.166 16.75C26.806 16.75 26.466 16.83 26.166 16.97V17.25C26.166 18.45 25.776 19.61 25.046 20.56C25.166 20.75 25.296 20.9 25.446 21.05C25.9071 21.4973 26.5237 21.7482 27.166 21.75C27.606 21.75 28.016 21.63 28.376 21.43C29.136 21 29.666 20.19 29.666 19.25C29.666 18.587 29.4026 17.9511 28.9338 17.4822C28.4649 17.0134 27.8291 16.75 27.166 16.75ZM20.666 22.75C18.326 22.75 13.666 23.92 13.666 26.25V27.75H27.666V26.25C27.666 23.92 23.006 22.75 20.666 22.75ZM13.376 23.3C11.446 23.53 8.66602 24.51 8.66602 26.25V27.75H11.666V25.82C11.666 24.81 12.356 23.97 13.376 23.3ZM27.956 23.3C28.976 23.97 29.666 24.81 29.666 25.82V27.75H32.666V26.25C32.666 24.51 29.886 23.53 27.956 23.3ZM20.666 24.75C22.196 24.75 23.906 25.25 24.896 25.75H16.436C17.426 25.25 19.136 24.75 20.666 24.75Z" fill="#1D61E7"/>
</g>
<defs>
<clipPath id="clip0_1144_1791">
<rect width="24" height="24" fill="white" transform="translate(8.66602 8.75)"/>
</clipPath>
</defs>
</svg>
